<svg width="50" height="44" viewBox="0 0 50 44" fill="none" xmlns="http://www.w3.org/2000/svg">
<rect x="0.5" y="0.5" width="49" height="43" rx="11.5" stroke="#949494"/>
<path d="M28.75 23.5C28.9489 23.5 29.1397 23.421 29.2803 23.2803C29.421 23.1397 29.5 22.9489 29.5 22.75C29.5 22.5511 29.421 22.3603 29.2803 22.2197C29.1397 22.079 28.9489 22 28.75 22C28.5511 22 28.3603 22.079 28.2197 22.2197C28.079 22.3603 28 22.5511 28 22.75C28 22.9489 28.079 23.1397 28.2197 23.2803C28.3603 23.421 28.5511 23.5 28.75 23.5ZM28.75 26.5C28.9489 26.5 29.1397 26.421 29.2803 26.2803C29.421 26.1397 29.5 25.9489 29.5 25.75C29.5 25.5511 29.421 25.3603 29.2803 25.2197C29.1397 25.079 28.9489 25 28.75 25C28.5511 25 28.3603 25.079 28.2197 25.2197C28.079 25.3603 28 25.5511 28 25.75C28 25.9489 28.079 26.1397 28.2197 26.2803C28.3603 26.421 28.5511 26.5 28.75 26.5ZM25.75 22.75C25.75 22.9489 25.671 23.1397 25.5303 23.2803C25.3897 23.421 25.1989 23.5 25 23.5C24.8011 23.5 24.6103 23.421 24.4697 23.2803C24.329 23.1397 24.25 22.9489 24.25 22.75C24.25 22.5511 24.329 22.3603 24.4697 22.2197C24.6103 22.079 24.8011 22 25 22C25.1989 22 25.3897 22.079 25.5303 22.2197C25.671 22.3603 25.75 22.5511 25.75 22.75ZM25.75 25.75C25.75 25.9489 25.671 26.1397 25.5303 26.2803C25.3897 26.421 25.1989 26.5 25 26.5C24.8011 26.5 24.6103 26.421 24.4697 26.2803C24.329 26.1397 24.25 25.9489 24.25 25.75C24.25 25.5511 24.329 25.3603 24.4697 25.2197C24.6103 25.079 24.8011 25 25 25C25.1989 25 25.3897 25.079 25.5303 25.2197C25.671 25.3603 25.75 25.5511 25.75 25.75ZM21.25 23.5C21.4489 23.5 21.6397 23.421 21.7803 23.2803C21.921 23.1397 22 22.9489 22 22.75C22 22.5511 21.921 22.3603 21.7803 22.2197C21.6397 22.079 21.4489 22 21.25 22C21.0511 22 20.8603 22.079 20.7197 22.2197C20.579 22.3603 20.5 22.5511 20.5 22.75C20.5 22.9489 20.579 23.1397 20.7197 23.2803C20.8603 23.421 21.0511 23.5 21.25 23.5ZM21.25 26.5C21.4489 26.5 21.6397 26.421 21.7803 26.2803C21.921 26.1397 22 25.9489 22 25.75C22 25.5511 21.921 25.3603 21.7803 25.2197C21.6397 25.079 21.4489 25 21.25 25C21.0511 25 20.8603 25.079 20.7197 25.2197C20.579 25.3603 20.5 25.5511 20.5 25.75C20.5 25.9489 20.579 26.1397 20.7197 26.2803C20.8603 26.421 21.0511 26.5 21.25 26.5Z" fill="#949494"/>
<path fill-rule="evenodd" clip-rule="evenodd" d="M21.25 14.3125C21.3992 14.3125 21.5422 14.3718 21.6477 14.4773C21.7532 14.5827 21.8125 14.7258 21.8125 14.875V15.4473C22.309 15.4375 22.8557 15.4375 23.4572 15.4375H26.542C27.1442 15.4375 27.691 15.4375 28.1875 15.4473V14.875C28.1875 14.7258 28.2467 14.5827 28.3522 14.4773C28.4577 14.3718 28.6008 14.3125 28.75 14.3125C28.8992 14.3125 29.0422 14.3718 29.1477 14.4773C29.2532 14.5827 29.3125 14.7258 29.3125 14.875V15.4952C29.5075 15.5102 29.6922 15.5293 29.8667 15.5523C30.7457 15.6708 31.4575 15.9197 32.0192 16.4807C32.5802 17.0425 32.8292 17.7543 32.9477 18.6333C33.0625 19.4883 33.0625 20.5795 33.0625 21.958V23.542C33.0625 24.9205 33.0625 26.0125 32.9477 26.8668C32.8292 27.7458 32.5802 28.4575 32.0192 29.0192C31.4575 29.5802 30.7457 29.8293 29.8667 29.9478C29.0117 30.0625 27.9205 30.0625 26.542 30.0625H23.4587C22.0802 30.0625 20.9882 30.0625 20.134 29.9478C19.255 29.8293 18.5432 29.5802 17.9815 29.0192C17.4205 28.4575 17.1715 27.7458 17.053 26.8668C16.9382 26.0118 16.9382 24.9205 16.9382 23.542V21.958C16.9382 20.5795 16.9382 19.4875 17.053 18.6333C17.1715 17.7543 17.4205 17.0425 17.9815 16.4807C18.5432 15.9197 19.255 15.6708 20.134 15.5523C20.309 15.5293 20.4937 15.5102 20.6882 15.4952V14.875C20.6882 14.7259 20.7474 14.583 20.8527 14.4775C20.958 14.372 21.1009 14.3127 21.25 14.3125ZM20.2825 16.6675C19.5287 16.7687 19.0937 16.9593 18.7765 17.2765C18.4592 17.5938 18.2687 18.0287 18.1675 18.7825C18.1505 18.91 18.136 19.0447 18.124 19.1867H31.876C31.864 19.0447 31.8495 18.9097 31.8325 18.7818C31.7312 18.028 31.5407 17.593 31.2235 17.2758C30.9062 16.9585 30.4712 16.768 29.7167 16.6667C28.9465 16.5633 27.9302 16.5617 26.5 16.5617H23.5C22.0697 16.5617 21.0542 16.564 20.2825 16.6675ZM18.0625 22C18.0625 21.3595 18.0625 20.8022 18.0722 20.3125H31.9277C31.9375 20.8022 31.9375 21.3595 31.9375 22V23.5C31.9375 24.9303 31.936 25.9465 31.8325 26.7175C31.7312 27.4713 31.5407 27.9062 31.2235 28.2235C30.9062 28.5408 30.4712 28.7313 29.7167 28.8325C28.9465 28.936 27.9302 28.9375 26.5 28.9375H23.5C22.0697 28.9375 21.0542 28.936 20.2825 28.8325C19.5287 28.7313 19.0937 28.5408 18.7765 28.2235C18.4592 27.9062 18.2687 27.4712 18.1675 26.7167C18.064 25.9465 18.0625 24.9303 18.0625 23.5V22Z" fill="#949494"/>
</svg>
