<svg width="25" height="24" viewBox="0 0 25 24" fill="none" xmlns="http://www.w3.org/2000/svg">
<path fill-rule="evenodd" clip-rule="evenodd" d="M18.912 6.5L18.111 20.117C18.0812 20.6264 17.8577 21.1051 17.4865 21.4551C17.1153 21.8052 16.6243 22.0001 16.114 22H8.886C8.37575 22.0001 7.88475 21.8052 7.5135 21.4551C7.14226 21.1051 6.91885 20.6264 6.889 20.117L6.09 6.5H4V5.5C4 5.36739 4.05268 5.24021 4.14645 5.14645C4.24021 5.05268 4.36739 5 4.5 5H20.5C20.6326 5 20.7598 5.05268 20.8536 5.14645C20.9473 5.24021 21 5.36739 21 5.5V6.5H18.912ZM10.5 2.5H14.5C14.6326 2.5 14.7598 2.55268 14.8536 2.64645C14.9473 2.74021 15 2.86739 15 3V4H10V3C10 2.86739 10.0527 2.74021 10.1464 2.64645C10.2402 2.55268 10.3674 2.5 10.5 2.5ZM9.5 9L10 18H11.5L11.1 9H9.5ZM14 9L13.5 18H15L15.5 9H14Z" fill="#FF0000"/>
</svg>
