<svg width="60" height="60" viewBox="0 0 60 60" fill="none" xmlns="http://www.w3.org/2000/svg">
<path fill-rule="evenodd" clip-rule="evenodd" d="M24.435 12.5016L9.39502 9.85155L9.83002 7.38655C9.85868 7.22483 9.91893 7.07034 10.0073 6.93192C10.0957 6.7935 10.2105 6.67385 10.3452 6.57982C10.4799 6.48579 10.6317 6.41922 10.7921 6.38391C10.9525 6.3486 11.1183 6.34525 11.28 6.37405L46.0275 12.5016H46.2475H46.03L50.6675 13.3191C50.8295 13.3474 50.9842 13.4075 51.1229 13.4957C51.2616 13.584 51.3816 13.6988 51.4759 13.8335C51.5701 13.9682 51.6369 14.1201 51.6724 14.2807C51.7078 14.4412 51.7113 14.6072 51.6825 14.7691L51.2475 17.2291L46.0225 16.3091L44.0225 50.2941C43.948 51.5662 43.3905 52.7619 42.464 53.6368C41.5375 54.5118 40.3119 54.9999 39.0375 55.0016H20.965C19.6894 55.0018 18.4619 54.5145 17.5338 53.6394C16.6057 52.7643 16.0471 51.5675 15.9725 50.2941L13.975 16.2516H45.7L24.435 12.5016ZM22.5 22.5016L23.75 45.0016H27.5L26.5 22.5016H22.5ZM33.75 22.5016L32.5 45.0016H36.25L37.5 22.5016H33.75ZM27.135 2.82405L36.985 4.55905C37.1467 4.58771 37.3012 4.64797 37.4397 4.73636C37.5781 4.82476 37.6977 4.93957 37.7918 5.07423C37.8858 5.20889 37.9524 5.36076 37.9877 5.52117C38.023 5.68157 38.0263 5.84736 37.9975 6.00905L37.5625 8.46905L25.2525 6.29905L25.6875 3.83655C25.7162 3.67483 25.7764 3.52034 25.8648 3.38192C25.9532 3.2435 26.068 3.12385 26.2027 3.02982C26.3374 2.93579 26.4892 2.86922 26.6496 2.83391C26.81 2.7986 26.9733 2.79525 27.135 2.82405Z" fill="#094271"/>
</svg>
