<svg width="43" height="53" viewBox="0 0 43 53" fill="none" xmlns="http://www.w3.org/2000/svg">
<path fill-rule="evenodd" clip-rule="evenodd" d="M15.435 10.5016L0.39502 7.85155L0.83002 5.38655C0.858681 5.22483 0.918932 5.07034 1.00733 4.93192C1.09573 4.7935 1.21054 4.67385 1.3452 4.57982C1.47986 4.48579 1.63173 4.41922 1.79213 4.38391C1.95254 4.3486 2.11832 4.34525 2.28002 4.37405L37.0275 10.5016H37.2475H37.03L41.6675 11.3191C41.8295 11.3474 41.9842 11.4075 42.1229 11.4957C42.2616 11.584 42.3816 11.6988 42.4759 11.8335C42.5701 11.9682 42.6369 12.1201 42.6724 12.2807C42.7078 12.4412 42.7113 12.6072 42.6825 12.7691L42.2475 15.2291L37.0225 14.3091L35.0225 48.2941C34.948 49.5662 34.3905 50.7619 33.464 51.6368C32.5375 52.5118 31.3119 52.9999 30.0375 53.0016H11.965C10.6894 53.0018 9.46189 52.5145 8.53378 51.6394C7.60567 50.7643 7.04714 49.5675 6.97252 48.2941L4.97502 14.2516H36.7L15.435 10.5016ZM13.5 20.5016L14.75 43.0016H18.5L17.5 20.5016H13.5ZM24.75 20.5016L23.5 43.0016H27.25L28.5 20.5016H24.75ZM18.135 0.824053L27.985 2.55905C28.1467 2.58771 28.3012 2.64797 28.4397 2.73636C28.5781 2.82476 28.6977 2.93957 28.7918 3.07423C28.8858 3.20889 28.9524 3.36076 28.9877 3.52117C29.023 3.68157 29.0263 3.84736 28.9975 4.00905L28.5625 6.46905L16.2525 4.29905L16.6875 1.83655C16.7162 1.67483 16.7764 1.52034 16.8648 1.38192C16.9532 1.2435 17.068 1.12385 17.2027 1.02982C17.3374 0.935788 17.4892 0.869217 17.6496 0.833911C17.81 0.798604 17.9733 0.795255 18.135 0.824053Z" fill="#094271"/>
</svg>
