<svg width="25" height="24" viewBox="0 0 25 24" fill="none" xmlns="http://www.w3.org/2000/svg">
<path d="M12.3333 15.575C12.2 15.575 12.075 15.5543 11.9583 15.513C11.8416 15.4717 11.7333 15.4007 11.6333 15.3L8.03331 11.7C7.83331 11.5 7.73731 11.2667 7.74531 11C7.75331 10.7333 7.84931 10.5 8.03331 10.3C8.23331 10.1 8.47098 9.996 8.74631 9.988C9.02165 9.98 9.25898 10.0757 9.45831 10.275L11.3333 12.15V5C11.3333 4.71667 11.4293 4.47934 11.6213 4.288C11.8133 4.09667 12.0506 4.00067 12.3333 4C12.616 3.99934 12.8536 4.09534 13.0463 4.288C13.239 4.48067 13.3346 4.718 13.3333 5V12.15L15.2083 10.275C15.4083 10.075 15.646 9.979 15.9213 9.987C16.1966 9.995 16.434 10.0993 16.6333 10.3C16.8166 10.5 16.9126 10.7333 16.9213 11C16.93 11.2667 16.834 11.5 16.6333 11.7L13.0333 15.3C12.9333 15.4 12.825 15.471 12.7083 15.513C12.5916 15.555 12.4666 15.5757 12.3333 15.575ZM6.33331 20C5.78331 20 5.31265 19.8043 4.92131 19.413C4.52998 19.0217 4.33398 18.5507 4.33331 18V16C4.33331 15.7167 4.42931 15.4793 4.62131 15.288C4.81331 15.0967 5.05065 15.0007 5.33331 15C5.61598 14.9993 5.85365 15.0953 6.04631 15.288C6.23898 15.4807 6.33465 15.718 6.33331 16V18H18.3333V16C18.3333 15.7167 18.4293 15.4793 18.6213 15.288C18.8133 15.0967 19.0506 15.0007 19.3333 15C19.616 14.9993 19.8536 15.0953 20.0463 15.288C20.239 15.4807 20.3346 15.718 20.3333 16V18C20.3333 18.55 20.1376 19.021 19.7463 19.413C19.355 19.805 18.884 20.0007 18.3333 20H6.33331Z" fill="#094271"/>
</svg>
