<svg width="23" height="22" viewBox="0 0 23 22" fill="none" xmlns="http://www.w3.org/2000/svg">
<g clip-path="url(#clip0_416_5855)">
<path d="M20.7641 0.932416C19.823 -0.00859988 18.302 -0.00859988 17.3609 0.932416L16.3125 1.98085L20.5191 6.18749L21.5676 5.13906C22.5086 4.19804 22.5086 2.67695 21.5676 1.73593L20.7641 0.932416ZM7.90781 10.3855C7.6457 10.6477 7.44375 10.9699 7.32773 11.3266L6.05586 15.1422C5.93125 15.5117 6.03008 15.9199 6.30508 16.1992C6.58008 16.4785 6.98828 16.573 7.36211 16.4484L11.1777 15.1766C11.5301 15.0605 11.8523 14.8586 12.1187 14.5965L19.0625 7.64413L14.8559 3.43749L7.90781 10.3855ZM4.625 2.74999C2.34766 2.74999 0.5 4.59765 0.5 6.87499V17.875C0.5 20.1523 2.34766 22 4.625 22H15.625C17.9023 22 19.75 20.1523 19.75 17.875V13.75C19.75 12.9894 19.1355 12.375 18.375 12.375C17.6145 12.375 17 12.9894 17 13.75V17.875C17 18.6355 16.3855 19.25 15.625 19.25H4.625C3.86445 19.25 3.25 18.6355 3.25 17.875V6.87499C3.25 6.11445 3.86445 5.49999 4.625 5.49999H8.75C9.51055 5.49999 10.125 4.88554 10.125 4.12499C10.125 3.36445 9.51055 2.74999 8.75 2.74999H4.625Z" fill="#094271"/>
</g>
<defs>
<clipPath id="clip0_416_5855">
<rect width="22" height="22" fill="white" transform="translate(0.5)"/>
</clipPath>
</defs>
</svg>
