<svg width="31" height="31" viewBox="0 0 31 31" fill="none" xmlns="http://www.w3.org/2000/svg">
<path d="M8.71875 6.78125H22.2812C27.0887 6.78125 31 10.6926 31 15.5C31 20.3074 27.0887 24.2188 22.2812 24.2188H8.71875C3.91133 24.2188 0 20.3074 0 15.5C0 10.6926 3.91133 6.78125 8.71875 6.78125ZM8.71875 22.2812C10.06 22.2812 11.371 21.8835 12.4862 21.1384C13.6014 20.3933 14.4706 19.3342 14.9838 18.0951C15.4971 16.856 15.6314 15.4925 15.3697 14.177C15.108 12.8616 14.4622 11.6533 13.5138 10.7049C12.5654 9.75656 11.3571 9.11071 10.0417 8.84905C8.72627 8.58739 7.36279 8.72169 6.12368 9.23494C4.88457 9.7482 3.82548 10.6174 3.08035 11.7325C2.33521 12.8477 1.9375 14.1588 1.9375 15.5C1.93942 17.2979 2.65449 19.0216 3.92581 20.2929C5.19712 21.5643 6.92084 22.2793 8.71875 22.2812Z" fill="#094271"/>
</svg>
