<svg width="16" height="16" viewBox="0 0 16 16" fill="none" xmlns="http://www.w3.org/2000/svg">
<path d="M6.66667 14H12.6667C13.0203 14 13.3594 13.8595 13.6095 13.6095C13.8595 13.3594 14 13.0203 14 12.6667V11.3333H6.66667V14ZM6.66667 9.99999H14V6.66666H6.66667V9.99999ZM5.33333 6.66666V9.99999H2V6.66666H5.33333ZM6.66667 5.33332H14V3.99999C14 3.64637 13.8595 3.30723 13.6095 3.05718C13.3594 2.80713 13.0203 2.66666 12.6667 2.66666H6.66667V5.33332ZM5.33333 2.66666V5.33332H2V3.99999C2 3.64637 2.14048 3.30723 2.39052 3.05718C2.64057 2.80713 2.97971 2.66666 3.33333 2.66666H5.33333ZM5.33333 11.3333V14H3.33333C2.97971 14 2.64057 13.8595 2.39052 13.6095C2.14048 13.3594 2 13.0203 2 12.6667V11.3333H5.33333Z" fill="white"/>
</svg>
