<svg width="21" height="21" viewBox="0 0 21 21" fill="none" xmlns="http://www.w3.org/2000/svg">
<path fill-rule="evenodd" clip-rule="evenodd" d="M9.18874 10.5001C9.18874 11.5231 8.35974 12.3521 7.33674 12.3521C6.31374 12.3521 5.48474 11.5231 5.48474 10.5001C5.48474 9.47713 6.31374 8.64813 7.33674 8.64813H7.33974C8.36174 8.64913 9.18874 9.47813 9.18874 10.5001Z" stroke="black" stroke-width="1.5" stroke-linecap="round" stroke-linejoin="round"/>
<path d="M9.19177 10.5001H15.5098V12.3521" stroke="black" stroke-width="1.5" stroke-linecap="round" stroke-linejoin="round"/>
<path d="M12.682 12.3521V10.5001" stroke="black" stroke-width="1.5" stroke-linecap="round" stroke-linejoin="round"/>
<path fill-rule="evenodd" clip-rule="evenodd" d="M1.24988 10.5001C1.24988 3.56312 3.56288 1.25012 10.4999 1.25012C17.4369 1.25012 19.7499 3.56312 19.7499 10.5001C19.7499 17.4371 17.4369 19.7501 10.4999 19.7501C3.56288 19.7501 1.24988 17.4371 1.24988 10.5001Z" stroke="black" stroke-width="1.5" stroke-linecap="round" stroke-linejoin="round"/>
</svg>
