<svg width="16" height="16" viewBox="0 0 16 16" fill="none" xmlns="http://www.w3.org/2000/svg">
<path d="M8.5 7.535V4.058C9.345 4.198 10.042 4.609 10.611 5.314L11.389 4.686C10.629 3.745 9.658 3.199 8.5 3.048V1.5H7.5V3.011C5.6925 3.121 4.5 4.141 4.5 5.621C4.5 7.758 6.0635 8.181 7.5 8.4005V11.981C6.14 11.8925 5.4905 11.431 4.889 10.686L4.111 11.314C4.996 12.4105 5.9775 12.898 7.5 12.9825V14.5H8.5V12.9775C10.363 12.8255 11.5 11.814 11.5 10.2575C11.5 8.153 9.9285 7.75 8.5 7.535ZM5.5 5.621C5.5 4.5445 6.515 4.094 7.5 4.0145V7.3875C6.215 7.176 5.5 6.866 5.5 5.621ZM8.5 11.976V8.5475C9.7835 8.755 10.5 9.0495 10.5 10.2575C10.5 11.5255 9.405 11.8905 8.5 11.976Z" fill="white"/>
</svg>
