<svg width="16" height="16" viewBox="0 0 16 16" fill="none" xmlns="http://www.w3.org/2000/svg">
<path d="M6.00016 6.66536C7.47292 6.66536 8.66683 5.47146 8.66683 3.9987C8.66683 2.52594 7.47292 1.33203 6.00016 1.33203C4.5274 1.33203 3.3335 2.52594 3.3335 3.9987C3.3335 5.47146 4.5274 6.66536 6.00016 6.66536Z" fill="white" stroke="white"/>
<path d="M10 6C10.5304 6 11.0391 5.78929 11.4142 5.41421C11.7893 5.03914 12 4.53043 12 4C12 3.46957 11.7893 2.96086 11.4142 2.58579C11.0391 2.21071 10.5304 2 10 2" fill="white"/>
<path d="M10 6C10.5304 6 11.0391 5.78929 11.4142 5.41421C11.7893 5.03914 12 4.53043 12 4C12 3.46957 11.7893 2.96086 11.4142 2.58579C11.0391 2.21071 10.5304 2 10 2" stroke="white" stroke-linecap="round"/>
<path d="M6.00016 13.9974C8.57749 13.9974 10.6668 12.8035 10.6668 11.3307C10.6668 9.85797 8.57749 8.66406 6.00016 8.66406C3.42283 8.66406 1.3335 9.85797 1.3335 11.3307C1.3335 12.8035 3.42283 13.9974 6.00016 13.9974Z" fill="white" stroke="white"/>
<path d="M12.0002 9.33203C13.1696 9.5887 14.0002 10.238 14.0002 10.9987C14.0002 11.6854 13.3242 12.2807 12.3336 12.5787" fill="white"/>
<path d="M12.0002 9.33203C13.1696 9.5887 14.0002 10.238 14.0002 10.9987C14.0002 11.6854 13.3242 12.2807 12.3336 12.5787" stroke="white" stroke-linecap="round"/>
</svg>
