<svg width="21" height="20" viewBox="0 0 21 20" fill="none" xmlns="http://www.w3.org/2000/svg">
<path d="M15.406 3.67975C13.8665 2.48544 11.9441 1.89393 9.99955 2.0162C8.05497 2.13848 6.22183 2.96613 4.84409 4.34387C3.46635 5.72161 2.6387 7.55475 2.51642 9.49933C2.39415 11.4439 2.98566 13.3663 4.17997 14.9058L15.406 3.67975ZM16.82 5.09375L5.59397 16.3197C7.13374 17.5119 9.05536 18.1016 10.9988 17.9784C12.9422 17.8553 14.774 17.0277 16.1509 15.6507C17.5279 14.2738 18.3555 12.442 18.4786 10.4985C18.6018 8.55514 18.0121 6.63351 16.82 5.09375ZM3.42997 2.92875C7.33497 -0.97625 13.667 -0.97625 17.572 2.92875C21.477 6.83375 21.477 13.1657 17.572 17.0707C13.667 20.9757 7.33497 20.9757 3.42997 17.0707C-0.475029 13.1657 -0.475029 6.83375 3.42997 2.92875Z" fill="#FFA500"/>
</svg>
