<svg width="60" height="60" viewBox="0 0 60 60" fill="none" xmlns="http://www.w3.org/2000/svg">
<path d="M52.75 31.25L56.25 34.775L39.925 51.25L31.25 42.5L34.75 38.975L39.925 44.175L52.75 31.25ZM25 42.5L32.5 50H7.5V45C7.5 39.475 16.45 35 27.5 35L32.225 35.275L25 42.5ZM27.5 10C30.1522 10 32.6957 11.0536 34.5711 12.9289C36.4464 14.8043 37.5 17.3478 37.5 20C37.5 22.6522 36.4464 25.1957 34.5711 27.0711C32.6957 28.9464 30.1522 30 27.5 30C24.8478 30 22.3043 28.9464 20.4289 27.0711C18.5536 25.1957 17.5 22.6522 17.5 20C17.5 17.3478 18.5536 14.8043 20.4289 12.9289C22.3043 11.0536 24.8478 10 27.5 10Z" fill="#094271"/>
</svg>
