<svg width="16" height="13" viewBox="0 0 16 13" fill="none" xmlns="http://www.w3.org/2000/svg">
<path d="M1.33336 4.83335L0.744196 5.42251L0.155029 4.83335L0.744196 4.24418L1.33336 4.83335ZM15.5 11.5C15.5 11.721 15.4122 11.933 15.256 12.0893C15.0997 12.2456 14.8877 12.3333 14.6667 12.3333C14.4457 12.3333 14.2337 12.2456 14.0774 12.0893C13.9212 11.933 13.8334 11.721 13.8334 11.5H15.5ZM4.91086 9.58918L0.744196 5.42251L1.92253 4.24418L6.0892 8.41085L4.91086 9.58918ZM0.744196 4.24418L4.91086 0.0775146L6.0892 1.25585L1.92253 5.42251L0.744196 4.24418ZM1.33336 4.00001H9.6667V5.66668H1.33336V4.00001ZM15.5 9.83335V11.5H13.8334V9.83335H15.5ZM9.6667 4.00001C11.2138 4.00001 12.6975 4.6146 13.7915 5.70856C14.8854 6.80252 15.5 8.28625 15.5 9.83335H13.8334C13.8334 8.72828 13.3944 7.66847 12.613 6.88707C11.8316 6.10567 10.7718 5.66668 9.6667 5.66668V4.00001Z" fill="white"/>
</svg>
