<svg width="16" height="16" viewBox="0 0 16 16" fill="none" xmlns="http://www.w3.org/2000/svg">
<path d="M9.33333 2.66666H13.3333V6.66666H9.33333V2.66666ZM2.66667 9.33332H6.66667V13.3333H2.66667V9.33332ZM9.33333 11.3333C9.33333 11.8638 9.54405 12.3725 9.91912 12.7475C10.2942 13.1226 10.8029 13.3333 11.3333 13.3333C11.8638 13.3333 12.3725 13.1226 12.7475 12.7475C13.1226 12.3725 13.3333 11.8638 13.3333 11.3333C13.3333 10.8029 13.1226 10.2942 12.7475 9.91911C12.3725 9.54404 11.8638 9.33332 11.3333 9.33332C10.8029 9.33332 10.2942 9.54404 9.91912 9.91911C9.54405 10.2942 9.33333 10.8029 9.33333 11.3333ZM2.66667 4.66666C2.66667 4.9293 2.7184 5.18937 2.81891 5.43202C2.91942 5.67467 3.06674 5.89515 3.25245 6.08087C3.43817 6.26659 3.65865 6.41391 3.9013 6.51442C4.14395 6.61493 4.40402 6.66666 4.66667 6.66666C4.92931 6.66666 5.18938 6.61493 5.43203 6.51442C5.67468 6.41391 5.89516 6.26659 6.08088 6.08087C6.2666 5.89515 6.41392 5.67467 6.51443 5.43202C6.61493 5.18937 6.66667 4.9293 6.66667 4.66666C6.66667 4.40401 6.61493 4.14394 6.51443 3.90129C6.41392 3.65864 6.2666 3.43816 6.08088 3.25244C5.89516 3.06673 5.67468 2.91941 5.43203 2.8189C5.18938 2.71839 4.92931 2.66666 4.66667 2.66666C4.40402 2.66666 4.14395 2.71839 3.9013 2.8189C3.65865 2.91941 3.43817 3.06673 3.25245 3.25244C3.06674 3.43816 2.91942 3.65864 2.81891 3.90129C2.7184 4.14394 2.66667 4.40401 2.66667 4.66666Z" stroke="white" stroke-linecap="round" stroke-linejoin="round"/>
</svg>
