<svg width="28" height="28" viewBox="0 0 28 28" fill="none" xmlns="http://www.w3.org/2000/svg">
<g clip-path="url(#clip0_416_6349)">
<mask id="mask0_416_6349" style="mask-type:luminance" maskUnits="userSpaceOnUse" x="0" y="0" width="28" height="28">
<path d="M0 0H28V28H0V0Z" fill="white"/>
</mask>
<g mask="url(#mask0_416_6349)">
<path d="M13.3022 26.2558C20.4555 26.2558 26.2543 20.457 26.2543 13.3037C26.2543 6.15036 20.4555 0.351562 13.3022 0.351562C6.1489 0.351562 0.350098 6.15036 0.350098 13.3037C0.350098 20.457 6.1489 26.2558 13.3022 26.2558Z" fill="#094271"/>
<path d="M19.9978 16.8986C19.8914 16.3876 18.4634 14.807 17.0221 13.3055C18.4634 11.8047 19.8914 10.2234 19.9971 9.71241C20.303 9.12091 19.5792 8.31101 18.9415 7.66631C18.3045 7.02231 17.4869 6.33771 16.8954 6.61001C16.3844 6.71641 14.8038 8.14441 13.3023 9.58571C11.8015 8.14441 10.2202 6.71641 9.7092 6.61141C9.1177 6.30551 8.3078 7.02931 7.6701 7.66701C7.0324 8.30471 6.3016 9.12161 6.6068 9.71311C6.7132 10.2241 8.1412 11.8054 9.5825 13.3062C8.1412 14.8077 6.7132 16.3883 6.6075 16.8993C6.3016 17.4908 7.0254 18.3014 7.6631 18.9454C8.3008 19.5894 9.1177 20.3069 9.7092 20.0017C10.2202 19.8953 11.8015 18.4673 13.3023 17.026C14.8038 18.4673 16.3844 19.8953 16.8954 20.001C17.4869 20.3069 18.2975 19.5831 18.9415 18.9454C19.5855 18.3084 20.303 17.4901 19.9978 16.8986Z" fill="white"/>
</g>
</g>
<defs>
<clipPath id="clip0_416_6349">
<rect width="28" height="28" fill="white"/>
</clipPath>
</defs>
</svg>
