<svg width="40" height="41" viewBox="0 0 40 41" fill="none" xmlns="http://www.w3.org/2000/svg">
<rect y="0.5" width="40" height="40" rx="10" fill="#DD0B00" fill-opacity="0.09"/>
<path opacity="0.5" d="M20 28.1654C17.9667 28.1654 16.0167 27.3576 14.5789 25.9199C13.1411 24.4821 12.3334 22.532 12.3334 20.4987C12.3334 18.4654 13.1411 16.5153 14.5789 15.0775C16.0167 13.6398 17.9667 12.832 20 12.832V28.1654Z" fill="#DD0B00"/>
<path fill-rule="evenodd" clip-rule="evenodd" d="M24.2838 17.1165C24.1492 17.2512 24.0736 17.4339 24.0736 17.6244C24.0736 17.8148 24.1492 17.9975 24.2838 18.1323L25.9321 19.7806H18.0834C17.8927 19.7806 17.7099 19.8563 17.5751 19.9911C17.4403 20.1259 17.3646 20.3087 17.3646 20.4994C17.3646 20.69 17.4403 20.8728 17.5751 21.0076C17.7099 21.1424 17.8927 21.2181 18.0834 21.2181H25.9321L24.2838 22.8665C24.2132 22.9323 24.1565 23.0116 24.1173 23.0998C24.078 23.1879 24.0568 23.2831 24.0551 23.3796C24.0534 23.4761 24.0712 23.572 24.1073 23.6615C24.1435 23.751 24.1973 23.8323 24.2655 23.9005C24.3338 23.9688 24.4151 24.0226 24.5046 24.0587C24.5941 24.0949 24.69 24.1126 24.7865 24.1109C24.883 24.1092 24.9781 24.0881 25.0663 24.0488C25.1545 24.0095 25.2338 23.9529 25.2996 23.8823L28.1746 21.0073C28.3092 20.8725 28.3848 20.6898 28.3848 20.4994C28.3848 20.3089 28.3092 20.1262 28.1746 19.9915L25.2996 17.1165C25.1649 16.9819 24.9822 16.9062 24.7917 16.9062C24.6012 16.9062 24.4186 16.9819 24.2838 17.1165Z" fill="#DD0B00"/>
</svg>
