<svg width="26" height="25" viewBox="0 0 26 25" fill="none" xmlns="http://www.w3.org/2000/svg">
<path d="M13 22.9154C18.753 22.9154 23.4167 18.2517 23.4167 12.4987C23.4167 6.74573 18.753 2.08203 13 2.08203C7.24707 2.08203 2.58337 6.74573 2.58337 12.4987C2.58337 18.2517 7.24707 22.9154 13 22.9154Z" stroke="#4B5563" stroke-width="1.33333" stroke-linecap="round" stroke-linejoin="round"/>
<path d="M13 13.543C14.7259 13.543 16.125 12.1439 16.125 10.418C16.125 8.69208 14.7259 7.29297 13 7.29297C11.2741 7.29297 9.875 8.69208 9.875 10.418C9.875 12.1439 11.2741 13.543 13 13.543Z" stroke="#4B5563" stroke-width="1.33333" stroke-linecap="round" stroke-linejoin="round"/>
<path d="M7.79163 21.5216V19.7904C7.79163 19.2378 8.01112 18.7079 8.40182 18.3172C8.79252 17.9265 9.32243 17.707 9.87496 17.707H16.125C16.6775 17.707 17.2074 17.9265 17.5981 18.3172C17.9888 18.7079 18.2083 19.2378 18.2083 19.7904V21.5216" stroke="#4B5563" stroke-width="1.33333" stroke-linecap="round" stroke-linejoin="round"/>
</svg>
