<svg width="61" height="55" viewBox="0 0 61 55" fill="none" xmlns="http://www.w3.org/2000/svg">
<rect width="61" height="55" rx="5" fill="#094271"/>
<path d="M24.25 20.75C24.25 22.5402 24.9612 24.2571 26.227 25.523C27.4929 26.7888 29.2098 27.5 31 27.5C32.7902 27.5 34.5071 26.7888 35.773 25.523C37.0388 24.2571 37.75 22.5402 37.75 20.75C37.75 18.9598 37.0388 17.2429 35.773 15.977C34.5071 14.7112 32.7902 14 31 14C29.2098 14 27.4929 14.7112 26.227 15.977C24.9612 17.2429 24.25 18.9598 24.25 20.75ZM29.2334 31.3074L30.2143 32.9422L28.4582 39.476L26.5598 31.7293C26.4543 31.3021 26.043 31.0227 25.6158 31.1334C21.9244 32.0562 19.1875 35.3996 19.1875 39.3811C19.1875 40.2775 19.9152 41 20.8064 41H41.1936C42.09 41 42.8125 40.2723 42.8125 39.3811C42.8125 35.3996 40.0756 32.0562 36.3842 31.1334C35.957 31.0279 35.5457 31.3074 35.4402 31.7293L33.5418 39.476L31.7857 32.9422L32.7666 31.3074C33.1041 30.7432 32.698 30.0312 32.0441 30.0312H29.9611C29.3072 30.0312 28.9012 30.7484 29.2387 31.3074H29.2334Z" fill="white"/>
</svg>
