<svg width="16" height="16" viewBox="0 0 16 16" fill="none" xmlns="http://www.w3.org/2000/svg">
<path d="M4.16663 2.33203C4.03402 2.33203 3.90684 2.38471 3.81307 2.47848C3.7193 2.57225 3.66663 2.69942 3.66663 2.83203V13.6654H4.99996V11.832C4.99996 11.372 5.37329 10.9987 5.83329 10.9987H10.1666C10.6266 10.9987 11 11.372 11 11.832V13.6654H12.3333V7.83203C12.3333 7.69942 12.2806 7.57225 12.1868 7.47848C12.0931 7.38471 11.9659 7.33203 11.8333 7.33203H10.5C10.3674 7.33203 10.2402 7.27935 10.1464 7.18558C10.0526 7.09182 9.99996 6.96464 9.99996 6.83203V2.83203C9.99996 2.69942 9.94728 2.57225 9.85351 2.47848C9.75974 2.38471 9.63257 2.33203 9.49996 2.33203H4.16663ZM5.99996 11.9987V13.6654H7.49996V11.9987H5.99996ZM8.49996 11.9987V13.6654H9.99996V11.9987H8.49996ZM12.8333 14.6654H3.16663C3.03402 14.6654 2.90684 14.6127 2.81307 14.5189C2.7193 14.4251 2.66663 14.298 2.66663 14.1654V2.83203C2.66663 2.43421 2.82466 2.05268 3.10597 1.77137C3.38727 1.49007 3.7688 1.33203 4.16663 1.33203H9.49996C9.89778 1.33203 10.2793 1.49007 10.5606 1.77137C10.8419 2.05268 11 2.43421 11 2.83203V6.33203H11.8333C12.0303 6.33203 12.2253 6.37083 12.4073 6.44621C12.5893 6.52159 12.7547 6.63208 12.894 6.77137C13.0332 6.91066 13.1437 7.07602 13.2191 7.25801C13.2945 7.43999 13.3333 7.63505 13.3333 7.83203V14.1654C13.3333 14.298 13.2806 14.4251 13.1868 14.5189C13.0931 14.6127 12.9659 14.6654 12.8333 14.6654ZM4.99996 4.33203C4.99996 4.15522 5.0702 3.98565 5.19522 3.86063C5.32025 3.7356 5.48981 3.66536 5.66663 3.66536C5.84344 3.66536 6.01301 3.7356 6.13803 3.86063C6.26305 3.98565 6.33329 4.15522 6.33329 4.33203C6.33329 4.50884 6.26305 4.67841 6.13803 4.80344C6.01301 4.92846 5.84344 4.9987 5.66663 4.9987C5.48981 4.9987 5.32025 4.92846 5.19522 4.80344C5.0702 4.67841 4.99996 4.50884 4.99996 4.33203ZM5.66663 8.33203C5.48981 8.33203 5.32025 8.40227 5.19522 8.52729C5.0702 8.65232 4.99996 8.82189 4.99996 8.9987C4.99996 9.17551 5.0702 9.34508 5.19522 9.4701C5.32025 9.59513 5.48981 9.66536 5.66663 9.66536C5.84344 9.66536 6.01301 9.59513 6.13803 9.4701C6.26305 9.34508 6.33329 9.17551 6.33329 8.9987C6.33329 8.82189 6.26305 8.65232 6.13803 8.52729C6.01301 8.40227 5.84344 8.33203 5.66663 8.33203ZM5.66663 5.9987C5.48981 5.9987 5.32025 6.06894 5.19522 6.19396C5.0702 6.31898 4.99996 6.48855 4.99996 6.66536C4.99996 6.84218 5.0702 7.01174 5.19522 7.13677C5.32025 7.26179 5.48981 7.33203 5.66663 7.33203C5.84344 7.33203 6.01301 7.26179 6.13803 7.13677C6.26305 7.01174 6.33329 6.84218 6.33329 6.66536C6.33329 6.48855 6.26305 6.31898 6.13803 6.19396C6.01301 6.06894 5.84344 5.9987 5.66663 5.9987ZM7.99996 3.66536C7.82315 3.66536 7.65358 3.7356 7.52855 3.86063C7.40353 3.98565 7.33329 4.15522 7.33329 4.33203C7.33329 4.50884 7.40353 4.67841 7.52855 4.80344C7.65358 4.92846 7.82315 4.9987 7.99996 4.9987C8.17677 4.9987 8.34634 4.92846 8.47136 4.80344C8.59639 4.67841 8.66663 4.50884 8.66663 4.33203C8.66663 4.15522 8.59639 3.98565 8.47136 3.86063C8.34634 3.7356 8.17677 3.66536 7.99996 3.66536ZM7.99996 8.33203C7.82315 8.33203 7.65358 8.40227 7.52855 8.52729C7.40353 8.65232 7.33329 8.82189 7.33329 8.9987C7.33329 9.17551 7.40353 9.34508 7.52855 9.4701C7.65358 9.59513 7.82315 9.66536 7.99996 9.66536C8.17677 9.66536 8.34634 9.59513 8.47136 9.4701C8.59639 9.34508 8.66663 9.17551 8.66663 8.9987C8.66663 8.82189 8.59639 8.65232 8.47136 8.52729C8.34634 8.40227 8.17677 8.33203 7.99996 8.33203ZM10.3333 8.33203C10.1565 8.33203 9.98691 8.40227 9.86189 8.52729C9.73686 8.65232 9.66663 8.82189 9.66663 8.9987C9.66663 9.17551 9.73686 9.34508 9.86189 9.4701C9.98691 9.59513 10.1565 9.66536 10.3333 9.66536C10.5101 9.66536 10.6797 9.59513 10.8047 9.4701C10.9297 9.34508 11 9.17551 11 8.9987C11 8.82189 10.9297 8.65232 10.8047 8.52729C10.6797 8.40227 10.5101 8.33203 10.3333 8.33203ZM7.99996 5.9987C7.82315 5.9987 7.65358 6.06894 7.52855 6.19396C7.40353 6.31898 7.33329 6.48855 7.33329 6.66536C7.33329 6.84218 7.40353 7.01174 7.52855 7.13677C7.65358 7.26179 7.82315 7.33203 7.99996 7.33203C8.17677 7.33203 8.34634 7.26179 8.47136 7.13677C8.59639 7.01174 8.66663 6.84218 8.66663 6.66536C8.66663 6.48855 8.59639 6.31898 8.47136 6.19396C8.34634 6.06894 8.17677 5.9987 7.99996 5.9987Z" fill="white"/>
</svg>
