<svg width="16" height="16" viewBox="0 0 16 16" fill="none" xmlns="http://www.w3.org/2000/svg">
<g clip-path="url(#clip0_416_5494)">
<path d="M9.95067 1.93891L5.516 4.06825C5.18129 4.23138 4.8006 4.27422 4.438 4.18958C4.28501 4.15164 4.13041 4.1205 3.97467 4.09625C2.758 3.95825 2 4.92091 2 6.02825V6.63625C2 7.74291 2.758 8.70625 3.97467 8.56691C4.13058 8.54387 4.28522 8.51294 4.438 8.47425C4.80068 8.38981 5.18137 8.4329 5.516 8.59625L9.95067 10.7249C10.9687 11.2136 11.478 11.4582 12.0453 11.2676C12.6133 11.0769 12.808 10.6682 13.1973 9.85091C13.7257 8.75317 14 7.55053 14 6.33225C14 5.11397 13.7257 3.91133 13.1973 2.81358C12.808 1.99625 12.6133 1.58691 12.0453 1.39691C11.478 1.20625 10.9687 1.44958 9.95067 1.93891Z" stroke="white" stroke-linecap="round" stroke-linejoin="round"/>
<path d="M4.99999 8.33203V4.33203M7.63866 13.8454L6.64466 14.6654C4.40332 12.888 4.67732 12.0407 4.67732 8.66536H5.43332C5.73999 10.572 6.46332 11.476 7.46199 12.13C8.07666 12.5327 8.20332 13.38 7.63866 13.8454Z" stroke="white" stroke-linecap="round" stroke-linejoin="round"/>
</g>
<defs>
<clipPath id="clip0_416_5494">
<rect width="16" height="16" fill="white"/>
</clipPath>
</defs>
</svg>
