<svg width="14" height="14" viewBox="0 0 14 14" fill="none" xmlns="http://www.w3.org/2000/svg">
<path d="M6.66667 1H5.26667C3.77333 1 3.02667 1 2.456 1.29067C1.95426 1.54633 1.54633 1.95426 1.29067 2.456C1 3.02667 1 3.77333 1 5.26667V8.73333C1 10.2267 1 10.9733 1.29067 11.544C1.54633 12.0457 1.95426 12.4537 2.456 12.7093C3.02667 13 3.77333 13 5.26667 13H8.73333C10.2267 13 10.9733 13 11.544 12.7093C12.0457 12.4537 12.4537 12.0457 12.7093 11.544C13 10.9733 13 10.2267 13 8.73333V7.33333M13 2.83333C13 3.31956 12.8068 3.78588 12.463 4.1297C12.1192 4.47351 11.6529 4.66667 11.1667 4.66667C10.6804 4.66667 10.2141 4.47351 9.8703 4.1297C9.52649 3.78588 9.33333 3.31956 9.33333 2.83333C9.33333 2.3471 9.52649 1.88079 9.8703 1.53697C10.2141 1.19315 10.6804 1 11.1667 1C11.6529 1 12.1192 1.19315 12.463 1.53697C12.8068 1.88079 13 2.3471 13 2.83333Z" stroke="white" stroke-width="1.5" stroke-linecap="round" stroke-linejoin="round"/>
</svg>
