<svg width="48" height="48" viewBox="0 0 48 48" fill="none" xmlns="http://www.w3.org/2000/svg">
<path fill-rule="evenodd" clip-rule="evenodd" d="M24 6C19.2261 6 14.6477 7.89642 11.2721 11.2721C7.89642 14.6477 6 19.2261 6 24C6 28.7739 7.89642 33.3523 11.2721 36.7279C14.6477 40.1036 19.2261 42 24 42C28.7739 42 33.3523 40.1036 36.7279 36.7279C40.1036 33.3523 42 28.7739 42 24C42 19.2261 40.1036 14.6477 36.7279 11.2721C33.3523 7.89642 28.7739 6 24 6ZM0 24C0 17.6348 2.52856 11.5303 7.02944 7.02944C11.5303 2.52856 17.6348 0 24 0C30.3652 0 36.4697 2.52856 40.9706 7.02944C45.4714 11.5303 48 17.6348 48 24C48 30.3652 45.4714 36.4697 40.9706 40.9706C36.4697 45.4714 30.3652 48 24 48C17.6348 48 11.5303 45.4714 7.02944 40.9706C2.52856 36.4697 0 30.3652 0 24Z" fill="#094271"/>
<path fill-rule="evenodd" clip-rule="evenodd" d="M40.9711 7.0307C41.5336 7.59329 41.8495 8.35621 41.8495 9.1517C41.8495 9.9472 41.5336 10.7101 40.9711 11.2727L11.2711 40.9727C10.7053 41.5192 9.94753 41.8216 9.16094 41.8147C8.37435 41.8079 7.62192 41.4924 7.06569 40.9362C6.50947 40.3799 6.19396 39.6275 6.18713 38.8409C6.18029 38.0543 6.48267 37.2965 7.02915 36.7307L36.7291 7.0307C37.2917 6.46829 38.0547 6.15234 38.8501 6.15234C39.6456 6.15234 40.4086 6.46829 40.9711 7.0307Z" fill="#094271"/>
</svg>
